<?xml version="1.0" encoding="iso-8859-1"?>
<!-- Generator: Adobe Illustrator 19.0.0, SVG Export Plug-In . SVG Version: 6.00 Build 0)  -->
<svg xmlns="http://www.w3.org/2000/svg" xmlns:xlink="http://www.w3.org/1999/xlink" version="1.1" id="Layer_1" x="0px" y="0px" viewBox="0 0 470.027 470.027" style="enable-background:new 0 0 470.027 470.027;" xml:space="preserve" width="512px" height="512px">
<g>
	<g>
		<g>
			<path d="M467.83,143.631L326.409,2.21c-1.407-1.407-3.314-2.197-5.304-2.197s-3.896,0.79-5.304,2.197L13.89,304.122     c-18.52,18.52-18.52,48.655,0,67.175l84.854,84.853c8.94,8.94,20.868,13.864,33.588,13.864c12.719,0,24.647-4.923,33.588-13.864     l301.91-301.912C470.759,151.309,470.759,146.56,467.83,143.631z M155.313,445.543c-6.107,6.107-14.27,9.47-22.981,9.47     c-8.713,0-16.874-3.363-22.98-9.47L24.497,360.69c-12.672-12.672-12.672-33.29,0-45.962L321.105,18.12L451.92,148.935     L155.313,445.543z" fill="#D80027"/>
			<path d="M57.708,313.337c-2.93-2.929-7.678-2.929-10.607,0c-2.929,2.929-2.929,7.678,0,10.606l98.995,98.995     c1.465,1.464,3.385,2.197,5.304,2.197s3.839-0.732,5.304-2.197c2.929-2.929,2.929-7.678,0-10.606L57.708,313.337z" fill="#D80027"/>
			<path d="M96.6,316.872c1.464,1.465,3.384,2.197,5.303,2.197s3.839-0.732,5.304-2.197c2.929-2.929,2.929-7.678-0.001-10.606     l-14.143-14.142c-2.928-2.93-7.677-2.929-10.606,0c-2.929,2.929-2.929,7.678,0.001,10.606L96.6,316.872z" fill="#D80027"/>
			<path d="M128.419,327.479c-2.929-2.929-7.678-2.929-10.606,0c-2.93,2.929-2.93,7.677-0.001,10.606l14.142,14.142     c1.465,1.465,3.384,2.197,5.304,2.197c1.919,0,3.839-0.732,5.303-2.197c2.93-2.929,2.93-7.677,0.001-10.606L128.419,327.479z" fill="#D80027"/>
			<path d="M163.774,362.835c-2.93-2.929-7.679-2.93-10.606,0c-2.93,2.929-2.93,7.677-0.001,10.606l14.142,14.142     c1.465,1.465,3.384,2.197,5.304,2.197c1.919,0,3.839-0.732,5.303-2.197c2.93-2.929,2.93-7.677,0.001-10.606L163.774,362.835z" fill="#D80027"/>
			<path d="M124.884,288.588c1.464,1.465,3.384,2.197,5.303,2.197s3.839-0.732,5.304-2.197c2.929-2.929,2.929-7.678-0.001-10.606     l-14.143-14.142c-2.928-2.93-7.677-2.929-10.606,0c-2.929,2.929-2.929,7.678,0.001,10.606L124.884,288.588z" fill="#D80027"/>
			<path d="M146.096,299.195c-2.929,2.929-2.929,7.678,0.001,10.606l14.143,14.142c1.464,1.465,3.384,2.197,5.303,2.197     c1.919,0,3.839-0.732,5.304-2.197c2.929-2.929,2.929-7.678-0.001-10.606l-14.143-14.142     C153.774,296.265,149.025,296.266,146.096,299.195z" fill="#D80027"/>
			<path d="M192.059,334.55c-2.929-2.929-7.678-2.93-10.606,0c-2.93,2.929-2.93,7.677-0.001,10.606l14.142,14.142     c1.465,1.465,3.384,2.197,5.304,2.197c1.919,0,3.839-0.732,5.303-2.197c2.93-2.929,2.93-7.677,0.001-10.606L192.059,334.55z" fill="#D80027"/>
			<path d="M232.212,208.535c-8.771,8.773-8.771,23.047,0.001,31.82c4.25,4.249,9.9,6.589,15.91,6.589     c6.009,0,11.659-2.34,15.91-6.59c8.771-8.773,8.771-23.047-0.001-31.82c-4.25-4.25-9.899-6.59-15.909-6.59     C242.112,201.944,236.463,204.285,232.212,208.535z M253.427,229.748c-1.417,1.417-3.301,2.197-5.304,2.197     c-2.004,0-3.888-0.78-5.304-2.196c-2.925-2.924-2.925-7.683-0.001-10.606c1.417-1.417,3.301-2.197,5.305-2.197     c2.003,0,3.887,0.78,5.303,2.197C256.351,222.066,256.351,226.824,253.427,229.748z" fill="#D80027"/>
			<path d="M153.168,260.304c1.464,1.465,3.384,2.197,5.303,2.197s3.839-0.732,5.304-2.197c2.929-2.929,2.929-7.678-0.001-10.606     l-14.143-14.142c-2.928-2.93-7.677-2.929-10.606,0c-2.929,2.929-2.929,7.678,0.001,10.606L153.168,260.304z" fill="#D80027"/>
			<path d="M188.523,295.659c1.464,1.465,3.384,2.197,5.303,2.197s3.839-0.732,5.304-2.197c2.929-2.929,2.929-7.678-0.001-10.606     l-14.143-14.142c-2.928-2.93-7.677-2.929-10.606,0c-2.929,2.929-2.929,7.678,0.001,10.606L188.523,295.659z" fill="#D80027"/>
			<path d="M220.343,306.266c-2.93-2.929-7.678-2.929-10.607,0c-2.929,2.929-2.929,7.678,0,10.606l14.143,14.143     c1.465,1.464,3.385,2.197,5.304,2.197s3.839-0.732,5.304-2.197c2.929-2.929,2.929-7.678,0-10.606L220.343,306.266z" fill="#D80027"/>
			<path d="M273.376,140.096c1.464,1.465,3.384,2.197,5.303,2.197s3.839-0.732,5.304-2.197c2.929-2.929,2.929-7.678-0.001-10.606     l-14.143-14.142c-2.928-2.93-7.677-2.929-10.606,0c-2.929,2.929-2.929,7.678,0.001,10.606L273.376,140.096z" fill="#D80027"/>
			<path d="M305.194,150.702c-2.928-2.93-7.677-2.929-10.606,0c-2.929,2.929-2.929,7.678,0.001,10.606l14.143,14.142     c1.464,1.465,3.384,2.197,5.303,2.197s3.839-0.732,5.304-2.197c2.929-2.929,2.929-7.678-0.001-10.606L305.194,150.702z" fill="#D80027"/>
			<path d="M329.943,186.058c-2.929,2.929-2.929,7.678,0.001,10.606l14.143,14.142c1.464,1.465,3.384,2.197,5.303,2.197     s3.839-0.732,5.304-2.197c2.929-2.929,2.929-7.678-0.001-10.606l-14.143-14.142C337.622,183.128,332.873,183.129,329.943,186.058     z" fill="#D80027"/>
			<path d="M301.659,111.812c1.465,1.464,3.385,2.197,5.304,2.197c1.919,0,3.839-0.732,5.304-2.197     c2.929-2.929,2.929-7.678,0-10.606l-14.143-14.143c-2.93-2.929-7.678-2.929-10.607,0c-2.929,2.929-2.929,7.678,0,10.606     L301.659,111.812z" fill="#D80027"/>
			<path d="M322.872,122.418c-2.929,2.929-2.929,7.678,0.001,10.606l14.143,14.142c1.464,1.465,3.384,2.197,5.303,2.197     s3.839-0.732,5.304-2.197c2.929-2.929,2.929-7.678-0.001-10.606l-14.143-14.142C330.551,119.488,325.802,119.489,322.872,122.418     z" fill="#D80027"/>
			<path d="M372.371,182.522c1.464,1.465,3.384,2.197,5.303,2.197s3.839-0.732,5.304-2.197c2.929-2.929,2.929-7.678-0.001-10.606     l-14.143-14.142c-2.928-2.93-7.677-2.929-10.606,0c-2.929,2.929-2.929,7.678,0.001,10.606L372.371,182.522z" fill="#D80027"/>
			<path d="M315.802,69.385l14.142,14.142c1.465,1.465,3.384,2.197,5.304,2.197c1.919,0,3.839-0.732,5.303-2.197     c2.93-2.929,2.93-7.677,0.001-10.606L326.41,58.779c-2.929-2.929-7.678-2.929-10.606,0     C312.873,61.707,312.873,66.456,315.802,69.385z" fill="#D80027"/>
			<path d="M400.655,154.238c1.464,1.465,3.384,2.197,5.303,2.197s3.839-0.732,5.304-2.197c2.929-2.929,2.929-7.678-0.001-10.606     l-14.143-14.142c-2.928-2.93-7.677-2.929-10.606,0c-2.929,2.929-2.929,7.678,0.001,10.606L400.655,154.238z" fill="#D80027"/>
			<path d="M283.485,211.941c1.379,3.907,5.663,5.954,9.567,4.577c3.906-1.378,5.956-5.662,4.577-9.568     c-2.62-7.426-6.786-14.03-12.384-19.628c-9.916-9.916-23.1-15.377-37.124-15.377c-14.023,0-27.207,5.461-37.123,15.377     c-20.469,20.47-20.469,53.776,0,74.246c9.916,9.916,23.1,15.377,37.123,15.377c14.024,0,27.208-5.461,37.124-15.377     c5.597-5.597,9.764-12.201,12.384-19.627c1.379-3.906-0.671-8.19-4.577-9.568c-3.905-1.378-8.189,0.671-9.567,4.577     c-1.869,5.297-4.846,10.011-8.847,14.012c-7.082,7.083-16.499,10.983-26.517,10.983c-10.017,0-19.434-3.9-26.516-10.983     c-14.621-14.621-14.621-38.412,0-53.033c7.082-7.083,16.499-10.983,26.516-10.983c10.018,0,19.435,3.9,26.517,10.983     C278.64,201.929,281.616,206.644,283.485,211.941z" fill="#D80027"/>
		</g>
	</g>
</g>
<g>
</g>
<g>
</g>
<g>
</g>
<g>
</g>
<g>
</g>
<g>
</g>
<g>
</g>
<g>
</g>
<g>
</g>
<g>
</g>
<g>
</g>
<g>
</g>
<g>
</g>
<g>
</g>
<g>
</g>
</svg>
