<?xml version="1.0" encoding="iso-8859-1"?>
<!-- Generator: Adobe Illustrator 19.0.0, SVG Export Plug-In . SVG Version: 6.00 Build 0)  -->
<svg xmlns="http://www.w3.org/2000/svg" xmlns:xlink="http://www.w3.org/1999/xlink" version="1.1" id="Layer_1" x="0px" y="0px" viewBox="0 0 512 512" style="enable-background:new 0 0 512 512;" xml:space="preserve" width="512px" height="512px">
<g>
	<g>
		<polygon points="0,45.811 0,413.373 66.829,413.373 66.829,397.204 16.168,397.204 16.168,61.979 495.832,61.979 495.832,397.204     212.345,397.204 212.345,413.373 512,413.373 512,45.811   " fill="#D80027"/>
	</g>
</g>
<g>
	<g>
		<polygon points="114.796,77.069 114.796,93.238 463.495,93.238 463.495,310.973 212.345,310.973 212.345,327.141 479.663,327.141     479.663,77.069   " fill="#D80027"/>
	</g>
</g>
<g>
	<g>
		<polygon points="48.505,310.973 48.505,93.238 66.291,93.238 66.291,77.069 32.337,77.069 32.337,327.141 66.829,327.141     66.829,310.973   " fill="#D80027"/>
	</g>
</g>
<g>
	<g>
		<path d="M455.411,336.842c-13.373,0-24.253,10.88-24.253,24.253s10.879,24.253,24.253,24.253s24.253-10.88,24.253-24.253    S468.784,336.842,455.411,336.842z M455.411,369.179c-4.458,0-8.084-3.626-8.084-8.084c0-4.458,3.626-8.084,8.084-8.084    s8.084,3.626,8.084,8.084C463.495,365.553,459.869,369.179,455.411,369.179z" fill="#D80027"/>
	</g>
</g>
<g>
	<g>
		<path d="M81.92,226.897v239.293h113.179V226.897H81.92z M178.931,450.021H98.088V243.065h80.842V450.021z" fill="#D80027"/>
	</g>
</g>
<g>
	<g>
		<rect x="114.257" y="256" width="32.337" height="16.168" fill="#D80027"/>
	</g>
</g>
<g>
	<g>
		<rect x="114.257" y="288.337" width="16.168" height="16.168" fill="#D80027"/>
	</g>
</g>
<g>
	<g>
		<rect x="146.594" y="288.337" width="16.168" height="16.168" fill="#D80027"/>
	</g>
</g>
<g>
	<g>
		<rect x="114.257" y="320.674" width="16.168" height="16.168" fill="#D80027"/>
	</g>
</g>
<g>
	<g>
		<rect x="146.594" y="320.674" width="16.168" height="16.168" fill="#D80027"/>
	</g>
</g>
<g>
	<g>
		<rect x="114.257" y="353.01" width="16.168" height="16.168" fill="#D80027"/>
	</g>
</g>
<g>
	<g>
		<rect x="146.594" y="353.01" width="16.168" height="16.168" fill="#D80027"/>
	</g>
</g>
<g>
	<g>
		<rect x="114.257" y="385.347" width="16.168" height="16.168" fill="#D80027"/>
	</g>
</g>
<g>
	<g>
		<rect x="146.594" y="385.347" width="16.168" height="16.168" fill="#D80027"/>
	</g>
</g>
<g>
	<g>
		
			<rect x="406.481" y="99.983" transform="matrix(0.7071 -0.7071 0.7071 0.7071 20.7373 334.8485)" width="16.168" height="84.819" fill="#D80027"/>
	</g>
</g>
<g>
	<g>
		
			<rect x="380.267" y="89.129" transform="matrix(0.7071 -0.7071 0.7071 0.7071 -5.462 323.9834)" width="16.168" height="158.912" fill="#D80027"/>
	</g>
</g>
<g>
	<g>
		<rect x="81.381" y="78.147" width="16.168" height="16.168" fill="#D80027"/>
	</g>
</g>
<g>
</g>
<g>
</g>
<g>
</g>
<g>
</g>
<g>
</g>
<g>
</g>
<g>
</g>
<g>
</g>
<g>
</g>
<g>
</g>
<g>
</g>
<g>
</g>
<g>
</g>
<g>
</g>
<g>
</g>
</svg>
